<svg width="20" height="20" viewBox="0 0 20 20" fill="none" xmlns="http://www.w3.org/2000/svg">
<path d="M13.3333 14.9999C13.7754 14.9999 14.1993 15.1755 14.5118 15.4881C14.8244 15.8006 15 16.2246 15 16.6666C15 16.2246 15.1756 15.8006 15.4882 15.4881C15.8007 15.1755 16.2246 14.9999 16.6667 14.9999C16.2246 14.9999 15.8007 14.8243 15.4882 14.5118C15.1756 14.1992 15 13.7753 15 13.3333C15 13.7753 14.8244 14.1992 14.5118 14.5118C14.1993 14.8243 13.7754 14.9999 13.3333 14.9999ZM13.3333 4.99992C13.7754 4.99992 14.1993 5.17551 14.5118 5.48807C14.8244 5.80063 15 6.22456 15 6.66659C15 6.22456 15.1756 5.80063 15.4882 5.48807C15.8007 5.17551 16.2246 4.99992 16.6667 4.99992C16.2246 4.99992 15.8007 4.82432 15.4882 4.51176C15.1756 4.1992 15 3.77528 15 3.33325C15 3.77528 14.8244 4.1992 14.5118 4.51176C14.1993 4.82432 13.7754 4.99992 13.3333 4.99992ZM7.5 14.9999C7.5 13.6738 8.02678 12.4021 8.96447 11.4644C9.90215 10.5267 11.1739 9.99992 12.5 9.99992C11.1739 9.99992 9.90215 9.47313 8.96447 8.53545C8.02678 7.59777 7.5 6.326 7.5 4.99992C7.5 6.326 6.97322 7.59777 6.03553 8.53545C5.09785 9.47313 3.82608 9.99992 2.5 9.99992C3.82608 9.99992 5.09785 10.5267 6.03553 11.4644C6.97322 12.4021 7.5 13.6738 7.5 14.9999Z" stroke="#333333" stroke-width="1.5" stroke-linecap="round" stroke-linejoin="round"/>
</svg>
