<svg width="16" height="16" viewBox="0 0 16 16" fill="none" xmlns="http://www.w3.org/2000/svg">
<path d="M8.78846 0.672603C8.96611 0.850253 9.0652 1.09048 9.06394 1.34044C9.06268 1.5904 8.96116 1.82962 8.78173 2.00546L3.64662 7.03787L14.815 7.08761C15.0685 7.08889 15.3112 7.18982 15.4895 7.3682C15.6679 7.54658 15.7674 7.78779 15.7661 8.03877C15.7649 8.28975 15.6629 8.52995 15.4828 8.70652C15.3026 8.88308 15.059 8.98156 14.8054 8.98028L3.63712 8.9172L8.72114 14.0012C8.89879 14.1789 8.99788 14.4191 8.99662 14.6691C8.99536 14.919 8.89384 15.1582 8.71441 15.3341C8.53497 15.5099 8.29231 15.608 8.03982 15.6067C7.78732 15.6055 7.54567 15.5049 7.36801 15.3273L0.669705 8.62897C0.583242 8.54039 0.515156 8.4359 0.469295 8.3214C0.374276 8.09044 0.375584 7.83163 0.47293 7.60165C0.519945 7.48761 0.589084 7.38381 0.676437 7.29611L7.44207 0.665803C7.6215 0.489956 7.86416 0.391883 8.11666 0.393158C8.36915 0.394433 8.61081 0.494953 8.78846 0.672603Z" fill="#636469"/>
</svg>
