<svg width="16" height="16" viewBox="0 0 16 16" fill="none" xmlns="http://www.w3.org/2000/svg">
<path d="M7.37365 15.3272C7.196 15.1495 7.09691 14.9093 7.09817 14.6593C7.09943 14.4094 7.20095 14.1701 7.38038 13.9943L12.5155 8.96189L1.34712 8.91214C1.09359 8.91086 0.850949 8.80993 0.672572 8.63156C0.494195 8.45318 0.394696 8.21197 0.395963 7.96098C0.397231 7.71 0.499161 7.46981 0.679331 7.29324C0.859501 7.11667 1.10315 7.0182 1.35668 7.01948L12.525 7.08255L7.44097 1.99853C7.26332 1.82088 7.16422 1.58066 7.16549 1.3307C7.16675 1.08074 7.26827 0.841519 7.4477 0.665673C7.62714 0.489826 7.86979 0.391752 8.12229 0.393028C8.37479 0.394303 8.61644 0.494823 8.79409 0.672473L15.4924 7.37078C15.5789 7.45936 15.647 7.56386 15.6928 7.67836C15.7878 7.90931 15.7865 8.16812 15.6892 8.39811C15.6422 8.51214 15.573 8.61594 15.4857 8.70364L8.72004 15.334C8.54061 15.5098 8.29795 15.6079 8.04545 15.6066C7.79296 15.6053 7.5513 15.5048 7.37365 15.3272Z" fill="#414246"/>
</svg>
