<svg width="16" height="17" viewBox="0 0 16 17" fill="none" xmlns="http://www.w3.org/2000/svg">
<path d="M12.7619 14.1812C12.5107 14.1812 12.2708 14.0814 12.0949 13.9037C11.919 13.7261 11.8217 13.4852 11.8242 13.2339L11.8968 6.04443L3.96444 13.9065C3.78426 14.0849 3.54131 14.1851 3.28905 14.1851C3.03679 14.1851 2.79587 14.0849 2.61929 13.9065C2.44272 13.7281 2.34495 13.4862 2.3475 13.2339C2.35005 12.9817 2.4527 12.7398 2.63288 12.5614L10.5747 4.70882H3.38478C3.13354 4.70882 2.8936 4.60903 2.71775 4.43139C2.54189 4.25375 2.44452 4.01281 2.44706 3.76159C2.4496 3.51037 2.55183 3.26943 2.73128 3.09179C2.91072 2.91415 3.15268 2.81435 3.40391 2.81435H12.8768C13.0005 2.81585 13.1226 2.84159 13.236 2.89013C13.4665 2.98625 13.6485 3.17018 13.7423 3.40164C13.7897 3.51552 13.8142 3.63781 13.8145 3.76159L13.7188 13.2339C13.7162 13.4852 13.614 13.7261 13.4346 13.9037C13.2551 14.0814 13.0132 14.1812 12.7619 14.1812Z" fill="#232325"/>
</svg>
