<svg width="249" height="280" viewBox="0 0 249 280" fill="none" xmlns="http://www.w3.org/2000/svg">
<path d="M215.852 -89L-227.553 167M271.278 -57L-172.127 199M326.704 -25L-116.701 231M382.129 7L-61.2757 263M437.555 39L-5.85012 295M492.981 71L49.5755 327M105.001 -89L492.981 135M49.5755 -57L437.555 167M-5.85012 -25L382.129 199M-61.2757 7L326.704 231M-116.701 39L271.278 263M-172.127 71L215.852 295M-227.553 103L160.427 327M160.427 -121L-282.978 135L105.001 359L548.406 103L160.427 -121Z" stroke="#D4D5D7"/>
<path d="M159.58 35.1252H152.074V39.4585" stroke="#D4D5D7" stroke-width="2" stroke-linecap="round" stroke-linejoin="round"/>
<path d="M168.962 40.5415V44.8748H161.456" stroke="#D4D5D7" stroke-width="2" stroke-linecap="round" stroke-linejoin="round"/>
<path d="M169.899 36.7502L151.135 43.2502" stroke="#D4D5D7" stroke-width="2" stroke-linecap="round" stroke-linejoin="round"/>
<path d="M211.579 192.125H204.073V196.458" stroke="#D4D5D7" stroke-width="2" stroke-linecap="round" stroke-linejoin="round"/>
<path d="M220.961 197.542V201.875H213.455" stroke="#D4D5D7" stroke-width="2" stroke-linecap="round" stroke-linejoin="round"/>
<path d="M221.899 193.75L203.135 200.25" stroke="#D4D5D7" stroke-width="2" stroke-linecap="round" stroke-linejoin="round"/>
</svg>
