<svg width="14" height="14" viewBox="0 0 14 14" fill="none" xmlns="http://www.w3.org/2000/svg">
<path d="M13.4368 1.68963C13.7478 1.3786 13.7479 0.874298 13.4368 0.563245C13.1258 0.252179 12.6215 0.252179 12.3104 0.563244L7.70754 5.16642C7.31704 5.55695 6.68388 5.55698 6.29334 5.16648L1.68961 0.563177C1.37855 0.252142 0.874238 0.252162 0.563199 0.563222C0.252154 0.874287 0.252174 1.37861 0.563244 1.68965L5.16688 6.29286C5.55745 6.68339 5.55745 7.31661 5.16688 7.70714L0.563244 12.3104C0.252174 12.6214 0.252154 13.1257 0.563199 13.4368C0.874238 13.7478 1.37855 13.7479 1.68961 13.4368L6.29334 8.83352C6.68388 8.44302 7.31704 8.44305 7.70754 8.83358L12.3104 13.4368C12.6215 13.7478 13.1258 13.7478 13.4368 13.4368C13.7479 13.1257 13.7478 12.6214 13.4368 12.3104L8.83312 7.70714C8.44255 7.31661 8.44255 6.68339 8.83312 6.29286L13.4368 1.68963Z" fill="black" fill-opacity="0.8"/>
</svg>
