<svg width="22" height="22" viewBox="0 0 22 22" fill="none" xmlns="http://www.w3.org/2000/svg">
<path d="M3.35184 8.94325C3.39676 8.89015 3.45282 8.84896 3.51551 8.823C3.57819 8.79705 3.64575 8.78704 3.71275 8.7938C3.77975 8.80055 3.84431 8.82388 3.90126 8.8619C3.9582 8.89992 4.00592 8.95157 4.04059 9.0127C4.26469 9.41273 4.58739 9.73795 4.93062 9.99786C5.69413 10.5765 6.61898 10.8639 7.55695 10.8639H10.1462C10.3662 10.8639 10.4702 10.7327 10.5042 10.5394C10.5238 10.4156 10.5116 10.2885 10.4689 10.1715C10.4262 10.0545 10.3546 9.95174 10.2616 9.8741C9.5704 9.28072 9.07578 8.4692 8.84965 7.5575C8.62351 6.6458 8.67763 5.68143 9.00416 4.80456C9.33068 3.92769 9.91259 3.18403 10.6653 2.68166C11.418 2.17929 12.3023 1.94439 13.1896 2.01112C15.0567 2.14691 16.5966 3.60978 16.9823 5.5002C16.9912 5.54334 17.0117 5.58282 17.0414 5.61389C17.071 5.64496 17.1084 5.66629 17.1492 5.67531C17.6937 5.79125 18.2448 5.86873 18.7989 5.90725C18.8345 5.90991 18.8688 5.92183 18.899 5.94196C18.9291 5.96209 18.9541 5.9898 18.9717 6.02262C18.9893 6.05545 18.999 6.09237 18.9999 6.13012C19.0008 6.16787 18.9929 6.20527 18.9769 6.239C18.5207 7.21182 17.7181 7.90405 17.0014 8.36276C16.7084 8.54881 16.4519 8.7929 16.2459 9.0817L16.2317 9.1017C16.0995 9.2894 16.0391 9.52321 16.0628 9.75614C16.0865 9.98907 16.1925 10.2039 16.3595 10.3574C18.0491 11.949 18.3956 13.4116 18.3908 14.6625C18.386 16.3352 17.5158 17.7477 16.1552 18.5955C12.893 20.6281 8.47223 20.0946 6.38599 19.2336C4.78842 18.5739 3.26896 17.448 2.60303 15.7743C1.24052 12.3501 2.49419 9.95814 3.35184 8.94325ZM14.9257 6.43217C15.0675 6.43218 15.2061 6.38763 15.324 6.30415C15.4419 6.22067 15.5338 6.10202 15.5881 5.9632C15.6423 5.82437 15.6565 5.67161 15.6289 5.52423C15.6012 5.37686 15.5329 5.24148 15.4327 5.13522C15.3324 5.02896 15.2047 4.9566 15.0656 4.92728C14.9265 4.89796 14.7824 4.91301 14.6514 4.97051C14.5204 5.02801 14.4084 5.12539 14.3296 5.25033C14.2508 5.37527 14.2088 5.52216 14.2088 5.67242C14.2088 5.87391 14.2843 6.06715 14.4188 6.20963C14.5532 6.35211 14.7355 6.43216 14.9257 6.43217Z" fill="url(#paint0_linear_2_119)"/>
<defs>
<linearGradient id="paint0_linear_2_119" x1="19" y1="11" x2="2" y2="11" gradientUnits="userSpaceOnUse">
<stop stop-color="#E25377"/>
<stop offset="0.490385" stop-color="#EEB902"/>
<stop offset="1" stop-color="#62B4FF"/>
</linearGradient>
</defs>
</svg>
