<svg width="40" height="40" viewBox="0 0 40 40" fill="none" xmlns="http://www.w3.org/2000/svg">
<rect x="1" y="1" width="38" height="38" rx="19" fill="#F6F6F6" stroke="url(#paint0_linear_2_433)" stroke-width="2"/>
<path d="M7.58152 23.188V21.28H5.72152V20.14H7.58152V18.232H8.70952V20.14H10.5695V21.28H8.70952V23.188H7.58152ZM17.6755 25H12.0355V23.836L15.0115 20.968C15.3315 20.648 15.5835 20.368 15.7675 20.128C15.9515 19.888 16.0835 19.66 16.1635 19.444C16.2435 19.228 16.2835 19.008 16.2835 18.784C16.2835 18.368 16.1555 18.04 15.8995 17.8C15.6515 17.56 15.3115 17.44 14.8795 17.44C14.4715 17.44 14.1035 17.548 13.7755 17.764C13.4475 17.98 13.1395 18.32 12.8515 18.784L11.9155 17.872C12.2995 17.328 12.7395 16.92 13.2355 16.648C13.7395 16.368 14.2875 16.228 14.8795 16.228C15.4475 16.228 15.9355 16.332 16.3435 16.54C16.7595 16.74 17.0835 17.028 17.3155 17.404C17.5475 17.78 17.6635 18.216 17.6635 18.712C17.6635 19.088 17.5995 19.44 17.4715 19.768C17.3515 20.096 17.1435 20.444 16.8475 20.812C16.5515 21.172 16.1475 21.6 15.6355 22.096L13.8595 23.836H17.6755V25ZM21.3712 16.228C21.9872 16.228 22.5232 16.364 22.9792 16.636C23.4352 16.908 23.7912 17.288 24.0472 17.776C24.3112 18.264 24.4432 18.832 24.4432 19.48C24.4432 20.104 24.3312 20.72 24.1072 21.328C23.8832 21.928 23.5312 22.532 23.0512 23.14C22.5712 23.74 21.9432 24.36 21.1672 25H19.2952C19.9912 24.424 20.5672 23.904 21.0232 23.44C21.4872 22.976 21.8592 22.54 22.1392 22.132C22.4192 21.724 22.6352 21.324 22.7872 20.932L22.8832 21.016C22.7312 21.36 22.4952 21.632 22.1752 21.832C21.8632 22.032 21.4752 22.132 21.0112 22.132C20.4912 22.132 20.0232 22.012 19.6072 21.772C19.1912 21.532 18.8592 21.196 18.6112 20.764C18.3632 20.332 18.2392 19.832 18.2392 19.264C18.2392 18.68 18.3712 18.16 18.6352 17.704C18.9072 17.24 19.2792 16.88 19.7512 16.624C20.2232 16.36 20.7632 16.228 21.3712 16.228ZM21.3592 17.404C21.0312 17.404 20.7392 17.484 20.4832 17.644C20.2272 17.796 20.0232 18.008 19.8712 18.28C19.7272 18.552 19.6552 18.864 19.6552 19.216C19.6552 19.568 19.7272 19.88 19.8712 20.152C20.0232 20.416 20.2272 20.624 20.4832 20.776C20.7392 20.928 21.0312 21.004 21.3592 21.004C21.6792 21.004 21.9672 20.932 22.2232 20.788C22.4792 20.644 22.6792 20.436 22.8232 20.164C22.9752 19.892 23.0512 19.576 23.0512 19.216C23.0512 18.864 22.9792 18.552 22.8352 18.28C22.6912 18.008 22.4912 17.796 22.2352 17.644C21.9792 17.484 21.6872 17.404 21.3592 17.404ZM24.9175 23.668L25.8295 22.756C26.1335 23.196 26.4535 23.516 26.7895 23.716C27.1255 23.908 27.4975 24.004 27.9055 24.004C28.2175 24.004 28.5015 23.948 28.7575 23.836C29.0135 23.724 29.2135 23.556 29.3575 23.332C29.5095 23.108 29.5855 22.836 29.5855 22.516C29.5855 22.1 29.4335 21.768 29.1295 21.52C28.8335 21.272 28.4215 21.148 27.8935 21.148H27.1495V19.96H27.8935C28.3335 19.96 28.6855 19.844 28.9495 19.612C29.2135 19.372 29.3455 19.072 29.3455 18.712C29.3455 18.336 29.2175 18.032 28.9615 17.8C28.7055 17.56 28.3735 17.44 27.9655 17.44C27.5735 17.44 27.2215 17.536 26.9095 17.728C26.6055 17.912 26.3095 18.216 26.0215 18.64L25.0975 17.68C25.4735 17.2 25.9095 16.84 26.4055 16.6C26.9095 16.352 27.4575 16.228 28.0495 16.228C28.5855 16.228 29.0615 16.332 29.4775 16.54C29.8935 16.74 30.2215 17.024 30.4615 17.392C30.7015 17.752 30.8215 18.164 30.8215 18.628C30.8215 19.036 30.7055 19.396 30.4735 19.708C30.2415 20.012 29.9215 20.252 29.5135 20.428C29.1055 20.604 28.6335 20.692 28.0975 20.692L28.2175 20.248C28.7935 20.248 29.2935 20.344 29.7175 20.536C30.1415 20.72 30.4695 20.984 30.7015 21.328C30.9335 21.672 31.0495 22.084 31.0495 22.564C31.0495 23.076 30.9175 23.532 30.6535 23.932C30.3975 24.324 30.0415 24.632 29.5855 24.856C29.1295 25.08 28.5975 25.192 27.9895 25.192C27.3335 25.192 26.7455 25.064 26.2255 24.808C25.7135 24.552 25.2775 24.172 24.9175 23.668Z" fill="#232325"/>
<defs>
<linearGradient id="paint0_linear_2_433" x1="0" y1="20" x2="40" y2="20" gradientUnits="userSpaceOnUse">
<stop stop-color="#E25377"/>
<stop offset="0.490385" stop-color="#EEB902"/>
<stop offset="1" stop-color="#62B4FF"/>
</linearGradient>
</defs>
</svg>
