<svg width="16" height="16" viewBox="0 0 16 16" fill="none" xmlns="http://www.w3.org/2000/svg">
<path d="M3.5 13C3.5 13.8284 2.82843 14.5 2 14.5C1.17157 14.5 0.5 13.8284 0.5 13C0.5 12.1716 1.17157 11.5 2 11.5C2.82843 11.5 3.5 12.1716 3.5 13Z" fill="#232325"/>
<path d="M9.5 13C9.5 13.8284 8.82843 14.5 8 14.5C7.17157 14.5 6.5 13.8284 6.5 13C6.5 12.1716 7.17157 11.5 8 11.5C8.82843 11.5 9.5 12.1716 9.5 13Z" fill="#232325"/>
<path d="M15.5 13C15.5 13.8284 14.8284 14.5 14 14.5C13.1716 14.5 12.5 13.8284 12.5 13C12.5 12.1716 13.1716 11.5 14 11.5C14.8284 11.5 15.5 12.1716 15.5 13Z" fill="#232325"/>
</svg>
