<svg width="15" height="16" viewBox="0 0 15 16" fill="none" xmlns="http://www.w3.org/2000/svg">
<path d="M1.74188 6.31707C1.77863 6.27363 1.8245 6.23993 1.87579 6.21869C1.92708 6.19745 1.98235 6.18926 2.03717 6.19479C2.09199 6.20032 2.14482 6.2194 2.1914 6.25051C2.23799 6.28162 2.27704 6.32388 2.3054 6.3739C2.48876 6.70119 2.75279 6.96728 3.03361 7.17993C3.6583 7.65337 4.41499 7.88854 5.18243 7.88854H7.30092C7.4809 7.88854 7.56596 7.7812 7.59381 7.62297C7.60983 7.52172 7.59985 7.41777 7.56493 7.32201C7.53001 7.22624 7.47143 7.1422 7.39533 7.07867C6.82979 6.59318 6.42511 5.92921 6.24009 5.18327C6.05506 4.43734 6.09935 3.64831 6.36651 2.93087C6.63366 2.21343 7.10977 1.60498 7.72562 1.19395C8.34147 0.782921 9.06497 0.590734 9.79096 0.645326C11.3186 0.756426 12.5785 1.95332 12.8941 3.50003C12.9014 3.53533 12.9182 3.56763 12.9424 3.59305C12.9666 3.61847 12.9973 3.63592 13.0307 3.6433C13.4761 3.73816 13.927 3.80156 14.3804 3.83307C14.4095 3.83525 14.4376 3.845 14.4623 3.86147C14.4869 3.87794 14.5074 3.90061 14.5218 3.92747C14.5362 3.95432 14.5441 3.98454 14.5449 4.01542C14.5456 4.04631 14.5391 4.07691 14.526 4.1045C14.1528 4.90045 13.4961 5.46682 12.9097 5.84213C12.67 5.99435 12.4601 6.19406 12.2916 6.43035L12.28 6.44671C12.1717 6.60029 12.1224 6.79158 12.1418 6.98216C12.1612 7.17274 12.2479 7.34848 12.3845 7.47406C13.7669 8.77631 14.0504 9.97295 14.0465 10.9965C14.0426 12.3651 13.3306 13.5207 12.2174 14.2143C9.54831 15.8774 5.93129 15.4409 4.22437 14.7365C2.91726 14.1967 1.67407 13.2755 1.12922 11.9061C0.0144395 9.10445 1.04016 7.14743 1.74188 6.31707ZM11.2114 4.26255C11.3274 4.26256 11.4408 4.22611 11.5373 4.15781C11.6337 4.08951 11.7089 3.99243 11.7533 3.87885C11.7977 3.76526 11.8094 3.64028 11.7867 3.51969C11.7641 3.39911 11.7082 3.28835 11.6262 3.20141C11.5442 3.11447 11.4397 3.05527 11.3259 3.03128C11.2121 3.00729 11.0941 3.0196 10.987 3.06665C10.8798 3.11369 10.7882 3.19337 10.7237 3.29559C10.6592 3.39781 10.6248 3.518 10.6248 3.64094C10.6248 3.8058 10.6866 3.9639 10.7966 4.08047C10.9066 4.19705 11.0558 4.26254 11.2114 4.26255Z" fill="#232325"/>
</svg>
