<svg width="249" height="280" viewBox="0 0 249 280" fill="none" xmlns="http://www.w3.org/2000/svg">
<path d="M215.852 -89L-227.553 167M271.278 -57L-172.127 199M326.704 -25L-116.701 231M382.129 7L-61.2757 263M437.555 39L-5.85012 295M492.981 71L49.5755 327M105.001 -89L492.981 135M49.5755 -57L437.555 167M-5.85012 -25L382.129 199M-61.2757 7L326.704 231M-116.701 39L271.278 263M-172.127 71L215.852 295M-227.553 103L160.427 327M160.427 -121L-282.978 135L105.001 359L548.406 103L160.427 -121Z" stroke="#D4D5D7"/>
</svg>
