<svg width="20" height="20" viewBox="0 0 20 20" fill="none" xmlns="http://www.w3.org/2000/svg">
<path d="M7.5 4.16675C7.5 3.50371 7.76339 2.86782 8.23223 2.39898C8.70107 1.93014 9.33696 1.66675 10 1.66675C10.663 1.66675 11.2989 1.93014 11.7678 2.39898C12.2366 2.86782 12.5 3.50371 12.5 4.16675V8.33342C12.5 8.99646 12.2366 9.63234 11.7678 10.1012C11.2989 10.57 10.663 10.8334 10 10.8334C9.33696 10.8334 8.70107 10.57 8.23223 10.1012C7.76339 9.63234 7.5 8.99646 7.5 8.33342V4.16675Z" stroke="#333333" stroke-width="1.5" stroke-linecap="round" stroke-linejoin="round"/>
<path d="M4.16699 8.33325C4.16699 9.88035 4.78157 11.3641 5.87554 12.458C6.9695 13.552 8.45323 14.1666 10.0003 14.1666C11.5474 14.1666 13.0312 13.552 14.1251 12.458C15.2191 11.3641 15.8337 9.88035 15.8337 8.33325" stroke="#333333" stroke-width="1.5" stroke-linecap="round" stroke-linejoin="round"/>
<path d="M6.66699 17.5H13.3337" stroke="#333333" stroke-width="1.5" stroke-linecap="round" stroke-linejoin="round"/>
<path d="M10 14.1667V17.5001" stroke="#333333" stroke-width="1.5" stroke-linecap="round" stroke-linejoin="round"/>
</svg>
