<svg width="26" height="26" viewBox="0 0 26 26" fill="none" xmlns="http://www.w3.org/2000/svg">
<path d="M9.75 5.4165C9.75 4.55455 10.0924 3.7279 10.7019 3.11841C11.3114 2.50891 12.138 2.1665 13 2.1665C13.862 2.1665 14.6886 2.50891 15.2981 3.11841C15.9076 3.7279 16.25 4.55455 16.25 5.4165V10.8332C16.25 11.6951 15.9076 12.5218 15.2981 13.1313C14.6886 13.7408 13.862 14.0832 13 14.0832C12.138 14.0832 11.3114 13.7408 10.7019 13.1313C10.0924 12.5218 9.75 11.6951 9.75 10.8332V5.4165Z" stroke="#232325" stroke-width="2" stroke-linecap="round" stroke-linejoin="round"/>
<path d="M5.41602 10.8335C5.41602 12.8447 6.21497 14.7736 7.63712 16.1957C9.05927 17.6179 10.9881 18.4168 12.9993 18.4168C15.0106 18.4168 16.9394 17.6179 18.3616 16.1957C19.7837 14.7736 20.5827 12.8447 20.5827 10.8335" stroke="#232325" stroke-width="2" stroke-linecap="round" stroke-linejoin="round"/>
<path d="M8.66602 22.75H17.3327" stroke="#232325" stroke-width="2" stroke-linecap="round" stroke-linejoin="round"/>
<path d="M13 18.4165V22.7498" stroke="#232325" stroke-width="2" stroke-linecap="round" stroke-linejoin="round"/>
</svg>
