<svg width="26" height="26" viewBox="0 0 26 26" fill="none" xmlns="http://www.w3.org/2000/svg">
<path d="M4.33301 7.58317C4.33301 7.00853 4.56128 6.45743 4.96761 6.05111C5.37394 5.64478 5.92504 5.4165 6.49967 5.4165H19.4997C20.0743 5.4165 20.6254 5.64478 21.0317 6.05111C21.4381 6.45743 21.6663 7.00853 21.6663 7.58317V20.5832C21.6663 21.1578 21.4381 21.7089 21.0317 22.1152C20.6254 22.5216 20.0743 22.7498 19.4997 22.7498H6.49967C5.92504 22.7498 5.37394 22.5216 4.96761 22.1152C4.56128 21.7089 4.33301 21.1578 4.33301 20.5832V7.58317Z" stroke="#232325" stroke-width="2" stroke-linecap="round" stroke-linejoin="round"/>
<path d="M17.333 3.25V7.58333" stroke="#232325" stroke-width="2" stroke-linecap="round" stroke-linejoin="round"/>
<path d="M8.66699 3.25V7.58333" stroke="#232325" stroke-width="2" stroke-linecap="round" stroke-linejoin="round"/>
<path d="M4.33301 11.9165H21.6663" stroke="#232325" stroke-width="2" stroke-linecap="round" stroke-linejoin="round"/>
<path d="M7.58301 15.1665H7.59709" stroke="#232325" stroke-width="2" stroke-linecap="round" stroke-linejoin="round"/>
<path d="M10.8438 15.1665H10.8488" stroke="#232325" stroke-width="2" stroke-linecap="round" stroke-linejoin="round"/>
<path d="M14.0938 15.1665H14.0988" stroke="#232325" stroke-width="2" stroke-linecap="round" stroke-linejoin="round"/>
<path d="M17.3496 15.1665H17.3546" stroke="#232325" stroke-width="2" stroke-linecap="round" stroke-linejoin="round"/>
<path d="M14.0996 18.4165H14.1046" stroke="#232325" stroke-width="2" stroke-linecap="round" stroke-linejoin="round"/>
<path d="M7.59375 18.4165H7.59875" stroke="#232325" stroke-width="2" stroke-linecap="round" stroke-linejoin="round"/>
<path d="M10.8438 18.4165H10.8488" stroke="#232325" stroke-width="2" stroke-linecap="round" stroke-linejoin="round"/>
</svg>
