<svg width="30" height="30" viewBox="0 0 30 30" fill="none" xmlns="http://www.w3.org/2000/svg">
<g clip-path="url(#clip0_2_110)">
<path d="M15 0C12.0333 0 9.13319 0.879735 6.66645 2.52796C4.19972 4.17618 2.27713 6.51886 1.14181 9.25975C0.00649923 12.0006 -0.290551 15.0166 0.288228 17.9264C0.867006 20.8361 2.29562 23.5088 4.3934 25.6066C6.49119 27.7044 9.16394 29.133 12.0737 29.7118C14.9834 30.2906 17.9994 29.9935 20.7403 28.8582C23.4811 27.7229 25.8238 25.8003 27.4721 23.3336C29.1203 20.8668 30 17.9667 30 15C30 11.0218 28.4197 7.20644 25.6066 4.3934C22.7936 1.58035 18.9783 0 15 0ZM10.6382 22.8947H7.3658V12.3533H10.6382V22.8947ZM9.00001 10.9145C8.6234 10.916 8.25479 10.8059 7.94076 10.598C7.62673 10.3901 7.38138 10.0938 7.23573 9.74648C7.09008 9.39917 7.05067 9.01648 7.12247 8.64678C7.19426 8.27708 7.37406 7.93696 7.63912 7.66942C7.90418 7.40188 8.2426 7.21892 8.61162 7.14368C8.98064 7.06844 9.36368 7.10428 9.71232 7.24669C10.061 7.3891 10.3596 7.63167 10.5704 7.94375C10.7812 8.25583 10.8948 8.6234 10.8967 9C10.8978 9.505 10.6988 9.98988 10.3434 10.3486C9.988 10.7074 9.505 10.9108 9.00001 10.9145ZM22.8947 22.8947H19.6243V17.7632C19.6243 16.5395 19.6007 14.9704 17.923 14.9704C16.2454 14.9704 15.9493 16.3007 15.9493 17.6743V22.8947H12.6908V12.3533H15.8309V13.7901H15.8763C16.3125 12.9612 17.3803 12.0868 18.973 12.0868C22.2849 12.0868 22.8947 14.2697 22.8947 17.104V22.8947Z" fill="white"/>
</g>
<defs>
<clipPath id="clip0_2_110">
<rect width="30" height="30" fill="white"/>
</clipPath>
</defs>
</svg>
