<svg width="20" height="20" viewBox="0 0 20 20" fill="none" xmlns="http://www.w3.org/2000/svg">
<path d="M5 15.8334C4.55797 15.8334 4.13405 15.6578 3.82149 15.3453C3.50893 15.0327 3.33333 14.6088 3.33333 14.1667V10.8334L2.5 10.0001L3.33333 9.16675V5.83341C3.33333 5.39139 3.50893 4.96746 3.82149 4.6549C4.13405 4.34234 4.55797 4.16675 5 4.16675" stroke="#333333" stroke-width="1.5" stroke-linecap="round" stroke-linejoin="round"/>
<path d="M10 9.89582L12.5 8.48999" stroke="#333333" stroke-width="1.5" stroke-linecap="round" stroke-linejoin="round"/>
<path d="M10 9.89575V12.7083" stroke="#333333" stroke-width="1.5" stroke-linecap="round" stroke-linejoin="round"/>
<path d="M10 9.89582L7.5 8.48999" stroke="#333333" stroke-width="1.5" stroke-linecap="round" stroke-linejoin="round"/>
<path d="M10 9.89575L12.5 11.3024" stroke="#333333" stroke-width="1.5" stroke-linecap="round" stroke-linejoin="round"/>
<path d="M10 7.08325V9.89575" stroke="#333333" stroke-width="1.5" stroke-linecap="round" stroke-linejoin="round"/>
<path d="M10 9.89575L7.5 11.3024" stroke="#333333" stroke-width="1.5" stroke-linecap="round" stroke-linejoin="round"/>
<path d="M15 15.8334C15.442 15.8334 15.866 15.6578 16.1785 15.3453C16.4911 15.0327 16.6667 14.6088 16.6667 14.1667V10.8334L17.5 10.0001L16.6667 9.16675V5.83341C16.6667 5.39139 16.4911 4.96746 16.1785 4.6549C15.866 4.34234 15.442 4.16675 15 4.16675" stroke="#333333" stroke-width="1.5" stroke-linecap="round" stroke-linejoin="round"/>
</svg>
