<svg width="26" height="26" viewBox="0 0 26 26" fill="none" xmlns="http://www.w3.org/2000/svg">
<path d="M6.5 20.5832C5.92536 20.5832 5.37426 20.3549 4.96794 19.9486C4.56161 19.5422 4.33333 18.9911 4.33333 18.4165V14.0832L3.25 12.9998L4.33333 11.9165V7.58317C4.33333 7.00853 4.56161 6.45743 4.96794 6.05111C5.37426 5.64478 5.92536 5.4165 6.5 5.4165" stroke="#232325" stroke-width="2" stroke-linecap="round" stroke-linejoin="round"/>
<path d="M13 12.8647L16.25 11.0371" stroke="#232325" stroke-width="2" stroke-linecap="round" stroke-linejoin="round"/>
<path d="M13 12.8647V16.521" stroke="#232325" stroke-width="2" stroke-linecap="round" stroke-linejoin="round"/>
<path d="M13 12.8647L9.75 11.0371" stroke="#232325" stroke-width="2" stroke-linecap="round" stroke-linejoin="round"/>
<path d="M13 12.8647L16.25 14.6934" stroke="#232325" stroke-width="2" stroke-linecap="round" stroke-linejoin="round"/>
<path d="M13 9.2085V12.8647" stroke="#232325" stroke-width="2" stroke-linecap="round" stroke-linejoin="round"/>
<path d="M13 12.8647L9.75 14.6934" stroke="#232325" stroke-width="2" stroke-linecap="round" stroke-linejoin="round"/>
<path d="M19.5 20.5832C20.0746 20.5832 20.6257 20.3549 21.0321 19.9486C21.4384 19.5422 21.6667 18.9911 21.6667 18.4165V14.0832L22.75 12.9998L21.6667 11.9165V7.58317C21.6667 7.00853 21.4384 6.45743 21.0321 6.05111C20.6257 5.64478 20.0746 5.4165 19.5 5.4165" stroke="#232325" stroke-width="2" stroke-linecap="round" stroke-linejoin="round"/>
</svg>
