<svg width="18" height="18" viewBox="0 0 18 18" fill="none" xmlns="http://www.w3.org/2000/svg">
<path fill-rule="evenodd" clip-rule="evenodd" d="M9.00077 1.5C8.00621 1.5 7.05238 1.89509 6.34912 2.59835C5.64586 3.30161 5.25077 4.25544 5.25077 5.25C5.25077 6.24456 5.64586 7.19839 6.34912 7.90165C7.05238 8.60491 8.00621 9 9.00077 9C9.99533 9 10.9492 8.60491 11.6524 7.90165C12.3557 7.19839 12.7508 6.24456 12.7508 5.25C12.7508 4.25544 12.3557 3.30161 11.6524 2.59835C10.9492 1.89509 9.99533 1.5 9.00077 1.5ZM6.75077 9.75C5.50352 9.75 4.30427 10.3185 3.60152 11.175C3.24527 11.61 2.99402 12.1478 2.97227 12.744C2.94977 13.353 3.16952 13.947 3.62327 14.4653C4.72727 15.729 6.49052 16.5 9.00077 16.5C11.511 16.5 13.2743 15.729 14.3783 14.4653C14.832 13.947 15.0518 13.353 15.0293 12.744C15.0068 12.1478 14.757 11.61 14.3993 11.175C13.698 10.32 12.4988 9.75 11.2508 9.75H6.75077Z" fill="#232325"/>
</svg>
