<svg width="380" height="532" viewBox="0 0 380 532" fill="none" xmlns="http://www.w3.org/2000/svg">
<path d="M393.834 -8.87431L-217.589 344.131M470.262 35.2514L-141.161 388.257M546.69 79.3771L-64.7334 432.383M623.118 123.503L11.6945 476.508M699.546 167.628L88.1224 520.634M775.974 211.754L164.55 564.76M240.978 -8.87431L775.974 300.006M164.55 35.2514L699.546 344.131M88.1224 79.3771L623.118 388.257M11.6945 123.503L546.69 432.383M-64.7334 167.628L470.262 476.508M-141.161 211.754L393.834 520.634M-217.589 255.88L317.406 564.76M317.406 -53L-294.017 300.006L240.978 608.885L852.402 255.88L317.406 -53Z" stroke="#E6C4FD" stroke-width="1.2"/>
</svg>
