<svg width="46" height="26" viewBox="0 0 46 26" fill="none" xmlns="http://www.w3.org/2000/svg">
<g clip-path="url(#clip0_0_2189)">
<path d="M20.6419 18.4165C21.1395 18.7038 21.4191 19.0935 21.4191 19.4998C21.4191 19.9062 21.1395 20.2959 20.6419 20.5832C21.1395 20.2959 21.8145 20.1344 22.5183 20.1344C23.2221 20.1344 23.897 20.2959 24.3947 20.5832C23.897 20.2959 23.6174 19.9062 23.6174 19.4998C23.6174 19.0935 23.897 18.7038 24.3947 18.4165C23.897 18.7038 23.2221 18.8652 22.5183 18.8652C21.8145 18.8652 21.1395 18.7038 20.6419 18.4165ZM31.9002 11.9165C32.3979 12.2038 32.6774 12.5935 32.6774 12.9998C32.6774 13.4062 32.3979 13.7959 31.9002 14.0832C32.3979 13.7959 33.0728 13.6344 33.7766 13.6344C34.4804 13.6344 35.1553 13.7959 35.653 14.0832C35.1553 13.7959 34.8758 13.4062 34.8758 12.9998C34.8758 12.5935 35.1553 12.2038 35.653 11.9165C35.1553 12.2038 34.4804 12.3652 33.7766 12.3652C33.0728 12.3652 32.3979 12.2038 31.9002 11.9165ZM14.0745 14.6248C15.5675 13.7629 17.5923 13.2786 19.7037 13.2786C21.815 13.2786 23.8399 13.7629 25.3329 14.6248C23.8399 13.7629 23.0012 12.5938 23.0012 11.3748C23.0012 10.1559 23.8399 8.98679 25.3329 8.12484C23.8399 8.98679 21.815 9.47103 19.7037 9.47103C17.5923 9.47103 15.5675 8.98679 14.0745 8.12484C15.5675 8.98679 16.4062 10.1559 16.4062 11.3748C16.4062 12.5938 15.5675 13.7629 14.0745 14.6248Z" stroke="white" stroke-opacity="0.51" stroke-width="2" stroke-linecap="round" stroke-linejoin="round"/>
</g>
<defs>
<clipPath id="clip0_0_2189">
<rect width="26" height="26" fill="white" transform="matrix(0.866025 0.5 -0.866025 0.5 22.5176 0)"/>
</clipPath>
</defs>
</svg>
