<svg width="46" height="26" viewBox="0 0 46 26" fill="none" xmlns="http://www.w3.org/2000/svg">
<g clip-path="url(#clip0_0_2003)">
<path d="M16.8892 6.49984C17.3869 6.21252 18.0618 6.05111 18.7656 6.05111C19.4694 6.05111 20.1444 6.21252 20.642 6.49984L33.7767 14.0832C34.2744 14.3705 34.554 14.7602 34.554 15.1665C34.554 15.5728 34.2744 15.9625 33.7767 16.2498L25.333 21.1248C24.8353 21.4122 24.1604 21.5736 23.4566 21.5736C22.7528 21.5736 22.0779 21.4122 21.5802 21.1248L8.44549 13.5415C7.94784 13.2542 7.66826 12.8645 7.66826 12.4582C7.66826 12.0518 7.94784 11.6622 8.44549 11.3748L16.8892 6.49984Z" stroke="#FEE1B9" stroke-width="2" stroke-linecap="round" stroke-linejoin="round"/>
<path d="M23.4562 8.12516L25.3326 7.04183C25.8302 6.75451 26.5052 6.5931 27.209 6.5931C27.9128 6.5931 28.5877 6.75451 29.0854 7.04183L32.8381 9.2085C33.3358 9.49581 33.6154 9.8855 33.6154 10.2918C33.6154 10.6982 33.3358 11.0878 32.8381 11.3752L30.9618 12.4585" stroke="#FEE1B9" stroke-width="2" stroke-linecap="round" stroke-linejoin="round"/>
<path d="M22.5176 13L22.5089 13.005" stroke="#FEE1B9" stroke-width="2" stroke-linecap="round" stroke-linejoin="round"/>
<path d="M13.1348 8.6665C14.4341 10.9406 16.6385 13.0071 19.5713 14.7004C22.5041 16.3936 26.0835 17.6664 30.0223 18.4165" stroke="#FEE1B9" stroke-width="2" stroke-linecap="round" stroke-linejoin="round"/>
</g>
<defs>
<clipPath id="clip0_0_2003">
<rect width="26" height="26" fill="white" transform="matrix(0.866025 0.5 -0.866025 0.5 22.5176 0)"/>
</clipPath>
</defs>
</svg>
