<svg width="46" height="26" viewBox="0 0 46 26" fill="none" xmlns="http://www.w3.org/2000/svg">
<g clip-path="url(#clip0_0_1989)">
<path d="M19.7037 5.95833C20.2013 5.67102 20.8763 5.5096 21.5801 5.5096C22.2839 5.5096 22.9588 5.67102 23.4565 5.95833L34.7148 12.4583C35.2124 12.7457 35.492 13.1353 35.492 13.5417C35.492 13.948 35.2124 14.3377 34.7148 14.625L23.4565 21.125C22.9588 21.4123 22.2839 21.5737 21.5801 21.5737C20.8763 21.5737 20.2013 21.4123 19.7037 21.125L8.44536 14.625C7.94771 14.3377 7.66813 13.948 7.66813 13.5417C7.66813 13.1353 7.94771 12.7457 8.44536 12.4583L19.7037 5.95833Z" stroke="#FEE1B9" stroke-width="2" stroke-linecap="round" stroke-linejoin="round"/>
<path d="M34.7148 10.2915L30.9621 12.4582" stroke="#FEE1B9" stroke-width="2" stroke-linecap="round" stroke-linejoin="round"/>
<path d="M27.209 5.9585L23.4562 8.12516" stroke="#FEE1B9" stroke-width="2" stroke-linecap="round" stroke-linejoin="round"/>
<path d="M15.9512 8.125L30.9623 16.7917" stroke="#FEE1B9" stroke-width="2" stroke-linecap="round" stroke-linejoin="round"/>
<path d="M15.9512 11.375L15.9634 11.382" stroke="#FEE1B9" stroke-width="2" stroke-linecap="round" stroke-linejoin="round"/>
<path d="M18.7734 13.0054L18.7778 13.0079" stroke="#FEE1B9" stroke-width="2" stroke-linecap="round" stroke-linejoin="round"/>
<path d="M21.5879 14.6304L21.5922 14.6329" stroke="#FEE1B9" stroke-width="2" stroke-linecap="round" stroke-linejoin="round"/>
<path d="M24.4082 16.2583L24.4125 16.2608" stroke="#FEE1B9" stroke-width="2" stroke-linecap="round" stroke-linejoin="round"/>
<path d="M18.7793 16.2583L18.7836 16.2608" stroke="#FEE1B9" stroke-width="2" stroke-linecap="round" stroke-linejoin="round"/>
<path d="M13.1445 13.0054L13.1489 13.0079" stroke="#FEE1B9" stroke-width="2" stroke-linecap="round" stroke-linejoin="round"/>
<path d="M15.959 14.6304L15.9633 14.6329" stroke="#FEE1B9" stroke-width="2" stroke-linecap="round" stroke-linejoin="round"/>
</g>
<defs>
<clipPath id="clip0_0_1989">
<rect width="26" height="26" fill="white" transform="matrix(0.866025 0.5 -0.866025 0.5 22.5176 0)"/>
</clipPath>
</defs>
</svg>
