<svg width="30" height="30" viewBox="0 0 30 30" fill="none" xmlns="http://www.w3.org/2000/svg">
<path fill-rule="evenodd" clip-rule="evenodd" d="M15 0C6.71602 0 0 6.71602 0 15C0 23.284 6.71602 30 15 30C23.284 30 30 23.284 30 15C30 6.71602 23.284 0 15 0ZM21.9527 10.2012C21.7271 12.573 20.7504 18.3287 20.2535 20.9854C20.0432 22.1098 19.6289 22.4865 19.2281 22.5234C18.3574 22.6037 17.6959 21.9475 16.8521 21.3943C15.532 20.5289 14.7861 19.9904 13.5047 19.1461C12.0234 18.1699 12.9838 17.6338 13.8275 16.7572C14.0484 16.5275 17.8863 13.0365 17.9607 12.7201C17.9701 12.6803 17.9789 12.5326 17.891 12.4547C17.8031 12.3768 17.6736 12.4037 17.5805 12.4248C17.448 12.4547 15.3387 13.8486 11.2535 16.6066C10.6547 17.018 10.1127 17.2178 9.62637 17.2078C9.09082 17.1961 8.06074 16.9049 7.29492 16.6559C6.35566 16.3506 5.60918 16.1889 5.67422 15.6703C5.70762 15.4002 6.07969 15.1242 6.78984 14.8418C11.1627 12.9363 14.0783 11.6807 15.5373 11.0736C19.7033 9.34107 20.5688 9.03984 21.1329 9.02988C21.8397 9.0174 22.0103 9.60076 21.9527 10.2012Z" fill="white"/>
</svg>
