<svg width="16" height="16" viewBox="0 0 16 16" fill="none" xmlns="http://www.w3.org/2000/svg">
<path d="M12.7619 13.6812C12.5107 13.6812 12.2708 13.5814 12.0949 13.4037C11.919 13.2261 11.8217 12.9852 11.8242 12.7339L11.8968 5.54443L3.96444 13.4065C3.78426 13.5849 3.54131 13.6851 3.28905 13.6851C3.03679 13.6851 2.79587 13.5849 2.61929 13.4065C2.44272 13.2281 2.34495 12.9862 2.3475 12.7339C2.35005 12.4817 2.4527 12.2398 2.63288 12.0614L10.5747 4.20882H3.38478C3.13354 4.20882 2.8936 4.10903 2.71775 3.93139C2.54189 3.75375 2.44452 3.51281 2.44706 3.26159C2.4496 3.01037 2.55183 2.76943 2.73128 2.59179C2.91072 2.41415 3.15268 2.31435 3.40391 2.31435H12.8768C13.0005 2.31585 13.1226 2.34159 13.236 2.39013C13.4665 2.48625 13.6485 2.67018 13.7423 2.90164C13.7897 3.01552 13.8142 3.13781 13.8145 3.26159L13.7188 12.7339C13.7162 12.9852 13.614 13.2261 13.4346 13.4037C13.2551 13.5814 13.0132 13.6812 12.7619 13.6812Z" fill="#976E0B"/>
</svg>
