<svg width="300" height="245" viewBox="0 0 300 245" fill="none" xmlns="http://www.w3.org/2000/svg">
<path d="M361.001 -98.4063L-441.154 364.718M427.847 -59.8126L-374.308 403.312M494.693 -21.2189L-307.462 441.905M561.539 17.3748L-240.616 480.499M227.308 -98.4063L561.539 94.5621M160.462 -59.8126L494.693 133.156M93.6156 -21.2189L427.847 171.75M26.7694 17.3748L361.001 210.343M-40.0769 55.9685L294.154 248.937M-106.923 94.5621L227.308 287.531M-173.769 133.156L160.462 326.124M-240.616 171.75L93.6156 364.718M-307.462 210.343L26.7694 403.312M-374.308 248.937L-40.0769 441.905M-441.154 287.531L-106.923 480.499M294.154 -137L-508 326.124L-173.769 519.093L628.385 55.9685L294.154 -137Z" stroke="#8E521E" stroke-opacity="0.05" stroke-width="2"/>
</svg>
