<svg width="1000" height="80" viewBox="0 0 1000 80" fill="none" xmlns="http://www.w3.org/2000/svg">
<path d="M871.001 -168.406L68.8458 294.718M937.847 -129.813L135.692 333.312M1004.69 -91.2189L202.538 371.905M1071.54 -52.6252L269.384 410.499M737.308 -168.406L1071.54 24.5621M670.462 -129.813L1004.69 63.1558M603.616 -91.2189L937.847 101.75M536.769 -52.6252L871.001 140.343M469.923 -14.0315L804.154 178.937M403.077 24.5621L737.308 217.531M336.231 63.1558L670.462 256.124M269.384 101.75L603.616 294.718M202.538 140.343L536.769 333.312M135.692 178.937L469.923 371.905M68.8458 217.531L403.077 410.499M804.154 -207L1.99952 256.124L336.231 449.093L1138.39 -14.0315L804.154 -207Z" stroke="#8E521E" stroke-opacity="0.05" stroke-width="2"/>
</svg>
