<svg width="31" height="31" viewBox="0 0 31 31" fill="none" xmlns="http://www.w3.org/2000/svg">
<g clip-path="url(#clip0_0_427)">
<path d="M7.59459 8.33889C8.38543 7.91386 9.26157 7.67173 10.1584 7.63034C11.0553 7.58896 11.95 7.74937 12.7766 8.09977L12.8222 8.11925L12.8449 8.07998C13.2733 7.34226 13.8541 6.70437 14.5485 6.20888C15.243 5.71338 16.0351 5.37168 16.8721 5.20655L17.1167 5.16226C18.1861 4.99691 19.2803 5.12383 20.2834 5.52958C21.2865 5.93533 22.1613 6.60481 22.815 7.46712C23.4687 8.32943 23.877 9.35247 23.9967 10.4279C24.1165 11.5033 23.9431 12.5912 23.4951 13.5761L23.3834 13.8088L23.351 13.863L18.6414 23.2317C18.5327 23.4478 18.3494 23.6171 18.1253 23.7083C17.9013 23.7996 17.6518 23.8065 17.4231 23.7279L17.3078 23.6801L7.84002 19.0334C6.84147 18.5544 5.995 17.8083 5.39436 16.8778C4.79372 15.9473 4.46235 14.8687 4.43694 13.7614C4.41153 12.6542 4.69307 11.5616 5.2504 10.6045C5.80772 9.6474 6.61907 8.86326 7.59459 8.33889Z" fill="#FB6A6A"/>
</g>
<defs>
<clipPath id="clip0_0_427">
<rect width="24" height="24" fill="white" transform="translate(0 7.64941) rotate(-18.5859)"/>
</clipPath>
</defs>
</svg>
