<svg width="59" height="59" viewBox="0 0 59 59" fill="none" xmlns="http://www.w3.org/2000/svg">
<g clip-path="url(#clip0_0_430)">
<path d="M24.3493 9.5509C26.1244 9.7261 27.8376 10.2974 29.3626 11.2228C30.8875 12.1482 32.1854 13.404 33.1604 14.8977L33.214 14.9803L33.2949 14.9406C34.8188 14.1986 36.4833 13.7901 38.1776 13.7423C39.8718 13.6945 41.5568 14.0085 43.12 14.6634L43.5725 14.8614C45.5194 15.7735 47.1833 17.195 48.3881 18.9756C49.5929 20.7561 50.2939 22.8293 50.4166 24.9756C50.5393 27.122 50.0793 29.2616 49.0853 31.1678C48.0913 33.0741 46.6003 34.6761 44.7702 35.8041L44.3282 36.0642L44.2147 36.1176L26.0683 46.3508C25.6496 46.5867 25.1595 46.6628 24.689 46.5651C24.2185 46.4674 23.7993 46.2024 23.5091 45.8193L23.372 45.6129L12.9057 27.4603C11.7896 25.5639 11.2202 23.3957 11.2606 21.1956C11.3009 18.9956 11.9493 16.8497 13.1341 14.9955C14.3189 13.1413 15.9937 11.6512 17.9732 10.6902C19.9527 9.72925 22.1595 9.33493 24.3493 9.5509Z" fill="#FB6A6A"/>
</g>
<defs>
<clipPath id="clip0_0_430">
<rect width="47.6827" height="47.6827" fill="white" transform="translate(12.5859) rotate(15.3061)"/>
</clipPath>
</defs>
</svg>
