<svg width="33" height="33" viewBox="0 0 33 33" fill="none" xmlns="http://www.w3.org/2000/svg">
<g clip-path="url(#clip0_0_433)">
<path d="M10.3901 4.42137C11.5346 4.28938 12.6941 4.41591 13.7831 4.79163C14.8722 5.16736 15.863 5.7827 16.6826 6.5923L16.7278 6.63714L16.7734 6.60106C17.6339 5.92443 18.6288 5.43907 19.6917 5.17737C20.7546 4.91568 21.8611 4.88365 22.9374 5.08343L23.2501 5.14658C24.6036 5.45625 25.8482 6.12619 26.8521 7.08546C27.8559 8.04472 28.5816 9.25761 28.9524 10.5957C29.3232 11.9337 29.3253 13.3472 28.9583 14.6863C28.5914 16.0254 27.8691 17.2404 26.868 18.2025L26.6246 18.4271L26.5602 18.4763L16.5041 27.4156C16.272 27.6217 15.9731 27.7368 15.6627 27.7394C15.3524 27.742 15.0516 27.632 14.8161 27.4298L14.7013 27.3183L5.61401 17.2901C4.65037 16.2456 3.99464 14.9547 3.71944 13.5605C3.44424 12.1663 3.56031 10.7231 4.05479 9.39074C4.54927 8.05841 5.40287 6.88894 6.52105 6.01185C7.63923 5.13476 8.97835 4.58428 10.3901 4.42137Z" fill="#FB6A6A"/>
</g>
<defs>
<clipPath id="clip0_0_433">
<rect width="30.7959" height="30.7959" fill="white" transform="translate(1.66016) rotate(3.09066)"/>
</clipPath>
</defs>
</svg>
