<svg width="19" height="18" viewBox="0 0 19 18" fill="none" xmlns="http://www.w3.org/2000/svg">
<g clip-path="url(#clip0_0_325)">
<mask id="mask0_0_325" style="mask-type:luminance" maskUnits="userSpaceOnUse" x="0" y="0" width="19" height="18">
<path d="M0.5 0H18.5V18H0.5V0Z" fill="white"/>
</mask>
<g mask="url(#mask0_0_325)">
<path d="M9.5 18C14.4707 18 18.5 13.9707 18.5 9C18.5 4.0293 14.4707 0 9.5 0C4.5293 0 0.5 4.0293 0.5 9C0.5 13.9707 4.5293 18 9.5 18Z" fill="#FF0002"/>
<path d="M13.8774 7.67255C13.6051 7.39175 13.2181 7.2383 12.7456 7.2383C12.1584 7.2383 11.7075 7.4768 11.4478 7.92365V5.70605H10.0861V11.7829H11.4478V9.64625C11.4478 9.14855 11.55 8.8295 11.7034 8.6423C11.8519 8.4551 12.0607 8.38265 12.2862 8.38265C12.4864 8.38265 12.6435 8.44655 12.7542 8.5613C12.8649 8.68055 12.9288 8.8637 12.9288 9.11885V11.7784H14.2905V8.85065C14.2905 8.35295 14.1456 7.9484 13.8778 7.67165L13.8774 7.67255ZM7.78841 7.2383C7.20116 7.2383 6.74981 7.4768 6.49061 7.92365V5.70605H5.12891V11.7829H6.49061V9.64625C6.49061 9.14855 6.59231 8.8295 6.74576 8.6423C6.89426 8.4551 7.10306 8.38265 7.32896 8.38265C7.52876 8.38265 7.68626 8.44655 7.79696 8.5613C7.90721 8.68055 7.97111 8.8637 7.97111 9.11885V11.7784H9.33281V8.85065C9.33281 8.35295 9.18836 7.9484 8.91611 7.6676C8.64791 7.3868 8.26046 7.2383 7.78841 7.2383Z" fill="white"/>
</g>
</g>
<defs>
<clipPath id="clip0_0_325">
<rect width="18" height="18" fill="white" transform="translate(0.5)"/>
</clipPath>
</defs>
</svg>
