<svg width="19" height="18" viewBox="0 0 19 18" fill="none" xmlns="http://www.w3.org/2000/svg">
<g clip-path="url(#clip0_0_318)">
<path d="M9.5 18C14.4706 18 18.5 13.9706 18.5 9C18.5 4.02944 14.4706 0 9.5 0C4.52944 0 0.5 4.02944 0.5 9C0.5 13.9706 4.52944 18 9.5 18Z" fill="url(#paint0_linear_0_318)"/>
<path d="M6.59375 9.658L7.66153 12.6135C7.66153 12.6135 7.79503 12.89 7.93798 12.89C8.08093 12.89 10.2071 10.6781 10.2071 10.6781L12.5715 6.11133L6.63185 8.8951L6.59375 9.658Z" fill="#C8DAEA"/>
<path d="M8.00935 10.4158L7.80437 12.5942C7.80437 12.5942 7.71857 13.2617 8.38592 12.5942C9.05327 11.9267 9.69205 11.412 9.69205 11.412" fill="#A9C6D8"/>
<path d="M6.60994 9.76347L4.41349 9.04782C4.41349 9.04782 4.15099 8.94132 4.23552 8.69982C4.25292 8.65002 4.28802 8.60764 4.39302 8.53482C4.87969 8.19559 13.401 5.13282 13.401 5.13282C13.401 5.13282 13.6416 5.05174 13.7835 5.10567C13.8186 5.11653 13.8502 5.13653 13.875 5.16361C13.8998 5.19069 13.917 5.22388 13.9248 5.25979C13.9402 5.32322 13.9466 5.38847 13.9439 5.45367C13.9432 5.51007 13.9364 5.56234 13.9312 5.64432C13.8793 6.48169 12.3262 12.7313 12.3262 12.7313C12.3262 12.7313 12.2333 13.097 11.9004 13.1095C11.8186 13.1122 11.737 13.0983 11.6607 13.0688C11.5844 13.0392 11.5147 12.9946 11.456 12.9376C10.8027 12.3756 8.54457 10.8581 8.04559 10.5243C8.03434 10.5167 8.02486 10.5067 8.0178 10.495C8.01073 10.4834 8.00625 10.4704 8.00464 10.4568C7.99767 10.4217 8.03592 10.3781 8.03592 10.3781C8.03592 10.3781 11.9679 6.88309 12.0725 6.51619C12.0806 6.48777 12.05 6.47374 12.0089 6.48619C11.7477 6.58227 7.22059 9.44119 6.72094 9.75672C6.68498 9.7676 6.64696 9.76991 6.60994 9.76347Z" fill="white"/>
</g>
<defs>
<linearGradient id="paint0_linear_0_318" x1="9.5" y1="18" x2="9.5" y2="0" gradientUnits="userSpaceOnUse">
<stop stop-color="#1D93D2"/>
<stop offset="1" stop-color="#38B0E3"/>
</linearGradient>
<clipPath id="clip0_0_318">
<rect width="18" height="18" fill="white" transform="translate(0.5)"/>
</clipPath>
</defs>
</svg>
